<svg width="838" height="800" version="1.1" xmlns="http://www.w3.org/2000/svg" desc="Created with imagetracer.js version 1.2.6" ><path fill="rgb(0,0,0)" stroke="rgb(0,0,0)" stroke-width="1" opacity="0" d="M 0 0 L 838 0 L 838 800 L 0 800 L 0 0 Z M 624 105 L 623 106 L 612 107 L 604 110 L 592 118 L 581 131 L 577 141 L 577 146 L 574 156 L 574 165 L 577 179 L 583 192 Q 591 201 603 208 L 617 212 L 644 212 Q 656 209 665 202 Q 675 195 680 183 L 684 173 L 684 160 L 685 159 L 684 146 L 680 135 L 674 125 Q 664 113 648 107 L 624 105 Z M 345 234 L 341 235 L 340 239 L 345 254 L 351 264 L 351 267 L 368 302 L 375 321 L 400 374 Q 408 398 420 420 L 420 423 L 433 449 L 449 489 L 456 502 L 461 517 L 469 531 L 479 557 L 489 576 L 489 579 L 492 583 L 502 609 L 509 621 Q 515 640 525 657 L 537 687 L 549 710 L 561 724 Q 578 742 606 750 L 622 753 L 674 753 L 676 751 L 676 246 L 677 245 Q 678 237 675 235 L 668 235 L 652 240 L 636 243 L 627 243 L 626 242 L 608 240 L 592 235 L 583 235 L 581 237 L 581 332 L 582 333 L 582 415 L 581 416 L 581 489 L 582 490 L 582 525 L 584 534 Q 586 541 582 542 L 572 523 L 563 499 L 554 482 L 546 461 L 540 451 L 539 446 L 523 409 L 500 361 L 499 355 L 491 340 L 487 328 L 483 322 Q 479 306 471 295 L 470 290 Q 462 275 450 265 L 448 262 L 445 259 L 441 254 Q 428 244 411 238 L 406 238 L 398 235 L 380 235 L 379 234 L 374 235 L 351 235 Q 349 233 345 234 Z M 314 287 L 311 288 L 304 300 L 295 324 L 285 343 L 283 351 L 272 372 Q 259 406 243 437 L 243 440 L 239 449 L 233 459 L 231 466 L 212 507 L 209 517 L 188 559 L 186 567 L 184 569 L 174 594 L 171 598 L 171 601 L 151 642 L 147 654 L 144 658 L 135 681 L 131 687 L 104 749 L 105 752 L 111 754 L 116 753 L 120 754 L 198 754 L 199 755 L 204 755 L 211 753 L 218 739 L 236 714 Q 250 697 269 685 L 303 667 L 325 660 Q 336 660 343 656 L 413 656 L 425 653 L 437 646 Q 439 647 438 645 L 441 643 L 450 629 L 453 618 L 453 601 Q 450 598 451 593 L 443 580 L 434 570 Q 423 563 409 561 L 348 561 L 347 562 Q 342 563 341 561 L 337 562 L 311 562 L 310 561 L 308 562 Q 300 563 297 561 L 297 557 L 301 551 L 310 527 L 317 513 L 326 488 L 333 461 L 333 455 L 336 444 L 337 427 L 338 426 L 338 376 L 337 375 L 336 356 L 329 321 L 321 300 L 320 294 L 317 289 Q 318 286 314 287 Z " /><path fill="rgb(47,102,148)" stroke="rgb(47,102,148)" stroke-width="1" opacity="0.9803921568627451" d="M 632.5 109 L 633.5 111 Q 630.7 111.7 632.5 109 Z " /><path fill="rgb(47,102,148)" stroke="rgb(47,102,148)" stroke-width="1" opacity="0.9803921568627451" d="M 636.5 111 L 640 113.5 Q 639.1 116.5 643.5 115 Q 645 111.5 651.5 113 L 653 116 L 659 117 L 661.5 121 Q 665.3 120.3 666 122.5 L 667.5 125 L 671 127.5 L 679 141.5 Q 678.3 148.7 682 151.5 L 682 170.5 Q 678.3 174.8 678 182.5 L 668.5 196 L 660.5 200 L 652.5 207 Q 642.8 206.8 637.5 211 L 627.5 211 L 624 209.5 L 626.5 208 L 637 207 Q 635.5 203.3 638.5 204 L 649 202 L 648.5 200 L 640 200 L 640 195 L 643 193.5 L 642 190.5 L 646 175.5 L 642 167.5 L 641 159 Q 643.7 160.1 643 157.5 L 648 151.5 L 640 135.5 L 642 132 L 646 129.5 L 644 125 L 650 122.5 Q 651.9 117.1 648.5 118 L 647.5 119 L 640 119 Q 641.7 114.9 637.5 116 L 633 113.5 L 636.5 111 Z M 668 129 Q 667 132 670 131 Q 671 128 668 129 Z M 677 142 L 676 148 L 678 147 L 677 142 Z M 677 174 L 676 179 L 677 179 L 677 174 Z M 673 184 L 672 187 L 673 187 L 673 184 Z " /><path fill="rgb(47,102,148)" stroke="rgb(47,102,148)" stroke-width="1" opacity="0.9803921568627451" d="M 614 113 L 623 113.5 L 621.5 115 L 614 115 L 614 113 Z " /><path fill="rgb(47,102,148)" stroke="rgb(47,102,148)" stroke-width="1" opacity="0.9803921568627451" d="M 635.5 121 L 640 121.5 L 636.5 123 L 635.5 121 Z " /><path fill="rgb(47,102,148)" stroke="rgb(47,102,148)" stroke-width="1" opacity="0.9803921568627451" d="M 616 205 L 621 206.5 L 616 207 L 616 205 Z " /><path fill="rgb(47,102,148)" stroke="rgb(47,102,148)" stroke-width="1" opacity="0.9803921568627451" d="M 313 293 L 316 293 L 316 300.5 L 317.5 301 L 320 303.5 L 321 310.5 L 324 315.5 L 324 320.5 L 320.5 325 Q 314.8 326.8 317 320.5 Q 320.5 319 318 317.5 L 318 314.5 Q 314.7 312.3 314.5 307 L 309 310.5 L 310 319.5 L 308 325 L 315 326 Q 316.1 328.7 313.5 328 L 309.5 329 L 305.5 324 L 302 322.5 L 303 317.5 L 306 313.5 L 307.5 306 Q 308.8 308.2 310 305.5 Q 309.4 299.9 313 298.5 L 313 293 Z " /><path fill="rgb(47,102,148)" stroke="rgb(47,102,148)" stroke-width="1" opacity="0.9803921568627451" d="M 298 325 L 301 326.5 L 300 331 L 298 331 L 298 325 Z " /><path fill="rgb(47,102,148)" stroke="rgb(47,102,148)" stroke-width="1" opacity="0.9803921568627451" d="M 326.5 325 L 328 327.5 L 329 340.5 L 332 347.5 Q 330.6 361.1 333 369 Q 336 367.8 335 371.5 L 336 372.5 L 336 431.5 L 333 439.5 L 332 457.5 L 328 466.5 Q 329 474 327 477 L 324 475.5 L 324 469.5 L 321 462.5 L 321 454 L 318 452.5 L 317 438.5 L 318 436 Q 320.7 434.9 320 437.5 Q 323 440.5 322 447.5 L 321 453 L 326 453 L 326 449.5 L 324 441.5 L 326 434.5 L 326 428 Q 322.2 429 321 426.5 L 320 423 L 316.5 424 L 316 421.5 L 316 380.5 L 313 377.5 L 312 366.5 L 315.5 351 L 317.5 355 Q 320.1 355.8 319 352.5 L 318 351.5 L 318 340.5 L 319 338 Q 323.5 339.8 322 334.5 L 326.5 325 Z M 327 365 L 324 371 L 325 390 L 322 391 L 322 404 L 321 405 L 321 414 L 322 415 L 321 420 L 324 422 Q 329 421 331 424 L 333 418 Q 332 411 329 408 Q 331 401 328 400 Q 327 392 331 391 L 331 383 L 327 365 Z " /><path fill="rgb(47,102,148)" stroke="rgb(47,102,148)" stroke-width="1" opacity="0.9803921568627451" d="M 295.5 332 Q 297.8 331.3 297 333.5 L 298 337.5 L 297 342 Q 293.3 343.5 294 340.5 L 293 338.5 L 295.5 332 Z " /><path fill="rgb(47,102,148)" stroke="rgb(47,102,148)" stroke-width="1" opacity="0.9803921568627451" d="M 303.5 333 L 305 336 L 302 334.5 L 303.5 333 Z " /><path fill="rgb(47,102,148)" stroke="rgb(47,102,148)" stroke-width="1" opacity="0.9803921568627451" d="M 306.5 336 L 308 337.5 L 309 343.5 L 306 345 L 306.5 336 Z " /><path fill="rgb(47,102,148)" stroke="rgb(47,102,148)" stroke-width="1" opacity="0.9803921568627451" d="M 291.5 343 L 292 349.5 L 290 352.5 L 291 355.5 L 290 358 L 287.5 359 L 286 357.5 L 286 351 Q 292 353.3 290 346.5 L 291.5 343 Z " /><path fill="rgb(47,102,148)" stroke="rgb(47,102,148)" stroke-width="1" opacity="0.9803921568627451" d="M 279.5 369 L 282 370.5 Q 283 375 280.5 376 L 278 376 L 278 370.5 L 279.5 369 Z " /><path fill="rgb(47,102,148)" stroke="rgb(47,102,148)" stroke-width="1" opacity="0.9803921568627451" d="M 275.5 377 Q 277.8 377.8 277 381.5 L 276 384 Q 272 385.4 274 378.5 L 275.5 377 Z " /><path fill="rgb(47,102,148)" stroke="rgb(47,102,148)" stroke-width="1" opacity="0.9803921568627451" d="M 271.5 387 L 273 392.5 L 270 394 Q 268.5 388.6 271.5 387 Z " /><path fill="rgb(47,102,148)" stroke="rgb(47,102,148)" stroke-width="1" opacity="0.9803921568627451" d="M 266 398 L 269 399.5 L 266.5 405 L 266 398 Z " /><path fill="rgb(47,102,148)" stroke="rgb(47,102,148)" stroke-width="1" opacity="0.9803921568627451" d="M 263.5 405 Q 266.5 404.5 265 411.5 L 262 413 L 262 406.5 L 263.5 405 Z " /><path fill="rgb(47,102,148)" stroke="rgb(47,102,148)" stroke-width="1" opacity="0.9803921568627451" d="M 254.5 426 Q 257 427 256 431.5 L 255 434 Q 252.3 432.9 253 435.5 L 250 437.5 L 250 433 Q 253.7 434.5 253 431.5 L 254.5 426 Z " /><path fill="rgb(47,102,148)" stroke="rgb(47,102,148)" stroke-width="1" opacity="0.9803921568627451" d="M 242.5 452 L 243 456.5 L 242 456.5 L 242.5 452 Z " /><path fill="rgb(47,102,148)" stroke="rgb(47,102,148)" stroke-width="1" opacity="0.9803921568627451" d="M 234.5 467 Q 237 468 236 472.5 L 234 473.5 L 234.5 467 Z " /><path fill="rgb(47,102,148)" stroke="rgb(47,102,148)" stroke-width="1" opacity="0.9803921568627451" d="M 318 470 Q 320.7 468.9 320 471.5 L 321 477 L 324 478.5 L 324 487.5 L 321 492.5 L 319 502 Q 316 500.8 317 504.5 L 315 512 Q 312.3 510.9 313 513.5 Q 310.7 514.7 312 519.5 L 304 534.5 L 303 540 L 300 538.5 L 300 532.5 L 304 527.5 L 304 521.5 L 303 519.5 Q 310.7 512.8 312 501 L 316 499.5 L 316 490.5 L 317.5 489 L 320 487.5 L 321 480.5 Q 316.5 477.8 318 470 Z " /><path fill="rgb(47,102,148)" stroke="rgb(47,102,148)" stroke-width="1" opacity="0.9803921568627451" d="M 230.5 478 L 231 480.5 L 230 480.5 L 230.5 478 Z " /><path fill="rgb(47,102,148)" stroke="rgb(47,102,148)" stroke-width="1" opacity="0.9803921568627451" d="M 314.5 486 L 316 489 Q 312.5 490.1 314.5 486 Z " /><path fill="rgb(47,102,148)" stroke="rgb(47,102,148)" stroke-width="1" opacity="0.9803921568627451" d="M 226 487 L 228 487.5 L 226.5 490 L 226 487 Z " /><path fill="rgb(47,102,148)" stroke="rgb(47,102,148)" stroke-width="1" opacity="0.9803921568627451" d="M 292 489 L 296 490.5 L 293.5 495 L 292 489 Z " /><path fill="rgb(47,102,148)" stroke="rgb(47,102,148)" stroke-width="1" opacity="0.9803921568627451" d="M 222.5 497 L 224 499.5 L 222 500.5 L 222.5 497 Z " /><path fill="rgb(47,102,148)" stroke="rgb(47,102,148)" stroke-width="1" opacity="0.9803921568627451" d="M 218.5 506 L 219 510.5 L 218 510.5 L 218.5 506 Z " /><path fill="rgb(47,102,148)" stroke="rgb(47,102,148)" stroke-width="1" opacity="0.9803921568627451" d="M 214.5 514 L 216 517.5 L 214.5 520 L 214.5 514 Z " /><path fill="rgb(47,102,148)" stroke="rgb(47,102,148)" stroke-width="1" opacity="0.9803921568627451" d="M 210.5 526 L 211 529.5 L 210 529.5 L 210.5 526 Z " /><path fill="rgb(47,102,148)" stroke="rgb(47,102,148)" stroke-width="1" opacity="0.9803921568627451" d="M 295.5 526 L 296 533 Q 292 534.4 294 527.5 L 295.5 526 Z " /><path fill="rgb(47,102,148)" stroke="rgb(47,102,148)" stroke-width="1" opacity="0.9803921568627451" d="M 298.5 542 L 299 549 L 296 550.5 L 295 556 L 292 557.5 L 292 567.5 L 293 568.5 L 290 570.5 L 287 558.5 L 293.5 549 Q 296.8 550.1 296 547.5 L 298.5 542 Z " /><path fill="rgb(47,102,148)" stroke="rgb(47,102,148)" stroke-width="1" opacity="0.9803921568627451" d="M 390.5 566 L 413.5 566 Q 415 568.5 420.5 567 L 431.5 572 L 434 574.5 Q 433.3 576.8 435.5 576 L 441 580.5 L 442.5 583 Q 444.8 582.3 444 584.5 L 449 592.5 L 452 606.5 L 448 628.5 L 437.5 642 Q 435.3 641.3 436 643.5 L 425.5 650 Q 418 650.5 413.5 654 L 337.5 654 L 331.5 657 L 319.5 658 L 314.5 659 L 309.5 662 L 300 663 Q 298.5 659.3 301.5 660 L 306 656.5 Q 303.3 655.4 304 652 Q 306.4 650.3 312.5 651 L 314.5 653 L 325.5 653 L 327 650 Q 322.3 650.9 320 648.5 L 327.5 647 L 332.5 649 L 334.5 649 L 341.5 649 L 342 646.5 Q 344.8 644.5 344 640 L 331.5 637 L 326.5 637 L 321 632.5 L 318.5 628 L 317 627.5 L 318.5 624 Q 320.8 624.8 320 622.5 L 327.5 619 L 332.5 620 L 339.5 618 L 343 619 L 342 616.5 L 342 612.5 L 342 610 L 336.5 610 L 336.5 612 L 332.5 610 L 330 614.5 Q 330.8 616.8 328.5 616 L 324.5 617 L 324.5 615 L 316.5 615 L 315.5 616 Q 310 613 312 602.5 L 315.5 598 L 321 596.5 Q 318.3 594.8 322.5 593 L 325.5 591 L 332 586.5 Q 330.9 583.2 333.5 584 L 339 580.5 L 335.5 578 L 318.5 577 L 315.5 575 Q 314.1 578.3 309 577 L 310 572 L 307.5 571 L 301.5 573 Q 298.3 571.8 299 568 L 301.5 567 L 389.5 567 L 390.5 566 Z M 426 572 L 427 573 L 428 574 Q 429 571 426 572 Z M 448 595 L 446 597 L 447 599 L 448 599 L 448 595 Z M 448 618 L 447 625 L 448 625 L 448 618 Z M 432 642 L 430 644 Q 429 646 432 645 L 432 642 Z " /><path fill="rgb(47,102,148)" stroke="rgb(47,102,148)" stroke-width="1" opacity="0.9803921568627451" d="M 286.5 579 Q 289.5 580.5 286.5 582 L 286.5 579 Z " /><path fill="rgb(47,102,148)" stroke="rgb(47,102,148)" stroke-width="1" opacity="0.9803921568627451" d="M 336.5 613 L 341 613.5 L 336.5 614 L 336.5 613 Z " /><path fill="rgb(47,102,148)" stroke="rgb(47,102,148)" stroke-width="1" opacity="0.9803921568627451" d="M 336.5 616 L 340 616.5 L 336.5 617 L 336.5 616 Z " /><path fill="rgb(47,102,148)" stroke="rgb(47,102,148)" stroke-width="1" opacity="0.9803921568627451" d="M 298.5 663 L 299.5 665 Q 296.7 665.7 298.5 663 Z " /><path fill="rgb(47,102,148)" stroke="rgb(47,102,148)" stroke-width="1" opacity="0.9803921568627451" d="M 286.5 667 Q 291 666 292 668.5 L 285 670 L 286.5 667 Z " /><path fill="rgb(47,102,148)" stroke="rgb(47,102,148)" stroke-width="1" opacity="0.9803921568627451" d="M 281 671 Q 285.1 669.7 284 673 Q 279.9 674.3 281 671 Z " /><path fill="rgb(47,102,148)" stroke="rgb(47,102,148)" stroke-width="1" opacity="0.9803921568627451" d="M 270 676 L 272 676.5 L 270 677.5 L 270 676 Z " /><path fill="rgb(47,102,148)" stroke="rgb(47,102,148)" stroke-width="1" opacity="0.9803921568627451" d="M 266.5 679 Q 270.3 678 269 681 L 266.5 682 Q 263.5 680.5 266.5 679 Z " /><path fill="rgb(47,102,148)" stroke="rgb(47,102,148)" stroke-width="1" opacity="0.9803921568627451" d="M 254.5 688 Q 257.1 687.3 256 690 L 253 689.5 L 254.5 688 Z " /><path fill="rgb(47,102,148)" stroke="rgb(47,102,148)" stroke-width="1" opacity="0.9803921568627451" d="M 250.5 691 Q 253.5 692.5 250.5 694 L 248 693.5 L 250.5 691 Z " /><path fill="rgb(47,102,148)" stroke="rgb(47,102,148)" stroke-width="1" opacity="0.9803921568627451" d="M 246.5 695 Q 249.5 696.5 246.5 698 Q 244.3 698.8 245 696.5 L 246.5 695 Z " /><path fill="rgb(47,102,148)" stroke="rgb(47,102,148)" stroke-width="1" opacity="0.9803921568627451" d="M 238.5 700 Q 240.8 700.8 240 704.5 L 237 706 Q 235.8 701.4 238.5 700 Z " /><path fill="rgb(47,102,148)" stroke="rgb(47,102,148)" stroke-width="1" opacity="0.9803921568627451" d="M 230 709 L 235 709.5 L 233 710 L 230.5 715 L 229 711.5 L 230 709 Z " /><path fill="rgb(83,85,86)" stroke="rgb(83,85,86)" stroke-width="1" opacity="0.9921568627450981" d="M 669.5 239 Q 673.9 237.5 673 240.5 L 674 245.5 L 673 245.5 Q 675.3 238.3 667.5 241 L 663.5 242 L 663.5 241 Q 668.1 241.6 669.5 239 Z " /><path fill="rgb(83,85,86)" stroke="rgb(83,85,86)" stroke-width="1" opacity="0.9921568627450981" d="M 658.5 242 L 661 242.5 L 660 245 L 647.5 246 L 647.5 245 Q 655.6 246.1 658.5 242 Z " /><path fill="rgb(83,85,86)" stroke="rgb(83,85,86)" stroke-width="1" opacity="0.9921568627450981" d="M 668.5 245 L 672 246.5 L 664.5 250 L 660 254.5 Q 661 260.5 658 262.5 L 658 612.5 L 657 613.5 L 657 644.5 L 658 645.5 L 658 656.5 Q 654.8 660.8 655 668.5 L 656 669.5 L 656 678.5 L 655 682.5 Q 661.2 687.8 659 701.5 L 656.5 703 Q 651.5 700 651 692.5 L 644 685.5 Q 641.4 682.6 642 676.5 L 637.5 671 Q 635.3 671.8 636 669.5 L 633 661 L 629 658.5 L 624.5 647 L 617.5 646 Q 616.3 648.3 615 645.5 Q 614.3 643.3 616.5 644 Q 620.8 642.3 619 634.5 L 617 629 Q 613.2 629.8 612 626.5 L 611 616.5 L 608.5 614 L 606 612.5 L 604.5 606 Q 601.5 607.5 603 613.5 Q 607.5 616 606 624.5 L 604 627.5 L 604 638.5 L 606 637.5 L 606 629.5 L 607.5 628 L 611 628.5 L 611 640.5 L 607 644.5 L 611 648.5 L 608 651.5 L 608 655.5 L 603 661.5 L 602 671.5 Q 604.5 673 603 678.5 L 604.5 680 Q 606.8 680.8 606 678.5 L 607 677.5 L 608 663.5 L 612.5 659 L 615 657.5 L 616.5 655 L 617 659 Q 613 657.6 615 664.5 Q 611.3 668.8 613 678.5 L 611 680.5 L 611 741 L 604 742 L 604 746 L 602.5 746 L 601 743 L 596 742.5 L 600 740.5 L 594 740 Q 595.1 742.7 592.5 742 L 591 739 L 588 738.5 L 590 738 L 588.5 735 L 587 738 L 581 734.5 L 585 733.5 L 582 729 L 578 729.5 L 580 733.5 L 578 732.5 Q 578.8 730.3 576.5 731 L 572 729 L 570.5 726 Q 567.2 727.1 568 724.5 L 567 722 L 564 720.5 L 557.5 713 Q 554.9 713.8 556 710.5 L 549.5 701 Q 546.9 701.8 548 698.5 L 544 690.5 L 545 687.5 L 544 687.5 L 543.5 689 L 543 683 L 540 683 L 540 676.5 L 537.5 673 Q 534.5 673.9 536 669.5 L 534 664 Q 530.3 665.4 532 659.5 L 528 653.5 L 528 647.5 L 529 642.5 L 525.5 645 Q 522.1 645.9 524 640.5 L 523 637 L 520 635.5 L 519 629.5 L 516 625.5 Q 516.5 620 513.5 618 L 512 618 L 512 614 L 515 615.5 L 516.5 618 L 521 619 L 522 616.5 L 516 611.5 L 514.5 609 L 508 607 Q 509.3 601.5 505.5 600 Q 502.8 600.6 504 594.5 L 506 595.5 L 507 599 Q 513.3 600 516.5 597 L 523.5 606 L 528.5 607 L 530 603.5 L 525 595 L 528.5 595 L 533 592.5 Q 530.2 591.4 531 588 L 524.5 584 L 520.5 584 L 520.5 585 L 523 586.5 L 524 592.5 L 521.5 596 Q 516.3 597.3 515 594.5 L 512.5 590 L 508 587.5 Q 505.8 580.8 512.5 583 L 517 580.5 L 517 456.5 L 515.5 455 L 513 453.5 L 511 450.5 L 510 440.5 L 506 435.5 L 506 430.5 L 507 428 Q 510.7 426.6 509 432.5 L 510 437 L 514 438.5 L 515 446.5 L 516.5 448 L 520 449.5 L 521 455 L 525 455 L 525 453.5 L 526 450.5 L 520 448 L 520 443.5 L 513 423.5 L 517 422 L 518 427 L 522 425.5 Q 520.9 421.3 525 423 L 525 431 Q 528.8 429.5 528 432.5 L 529 437.5 L 526 439 L 526 446.5 L 527.5 448 Q 530.3 448.6 529 442.5 L 530 440 L 533 441.5 Q 533.8 443.8 531.5 443 L 531.5 444 L 534 445.5 Q 538.5 448.3 537 456 L 541 458.5 L 542 467 L 545 468.5 Q 544.3 475.2 549 476.5 L 549 481.5 L 553 485.5 Q 552.1 492.9 557 494.5 Q 556.4 499.9 558 502 Q 562.9 500.2 561 506.5 L 565 512.5 L 566 519 L 569 519 L 569 525.5 L 573 528 Q 574.3 532.1 571 531 L 571 534.5 L 572.5 537 L 573.5 533 L 577 538.5 L 574 540.5 Q 573.4 545.6 576.5 547 L 577.5 541 L 578 544.5 L 583.5 552 Q 586.9 551.1 585 556.5 L 589 561.5 Q 590.9 571.6 597 577.5 L 598 583.5 L 601 586.5 L 604 595.5 L 615 614.5 L 617 621.5 Q 622.8 625.7 624 634.5 L 628.5 639 L 631 637.5 L 632 635.5 L 632 622.5 L 634 615 Q 630.7 613.7 632 618.5 L 631 621 Q 627.2 622.5 628 619.5 L 626 616.5 L 632 604.5 L 632 587.5 L 630 584.5 L 633 581.5 L 633 262.5 L 628 258.5 L 635 255.5 L 633.5 252 L 628 251 L 629 246 L 637.5 247 Q 639 244.5 644.5 246 L 646.5 248 L 659.5 249 L 660.5 250 L 663 249 Q 661.2 244.1 667.5 246 L 668.5 245 Z M 525 432 L 523 437 L 525 438 L 525 432 Z M 532 449 Q 529 450 530 454 L 533 455 Q 535 454 534 451 L 532 449 Z M 540 470 L 538 473 L 541 475 Q 543 469 540 470 Z M 540 493 L 538 497 L 541 498 L 542 495 L 540 493 Z M 549 497 L 547 499 L 547 505 L 550 505 Q 552 499 549 497 Z M 541 511 L 538 514 Q 537 517 540 518 Q 543 519 541 514 Q 543 512 541 511 Z M 600 594 L 597 597 L 599 601 L 601 602 L 601 595 L 600 594 Z M 529 615 L 527 617 L 526 625 L 523 629 Q 522 633 525 634 L 529 633 L 530 633 L 530 619 L 534 618 Q 536 613 529 615 Z M 537 640 L 535 644 Q 533 649 537 651 L 538 649 Q 539 642 537 640 Z M 633 640 L 632 650 L 634 650 Q 635 643 633 640 Z M 545 678 Q 542 679 543 683 L 546 682 L 545 678 Z M 549 695 Q 546 699 550 698 L 549 695 Z M 565 710 L 564 714 L 565 714 L 565 710 Z M 592 710 L 589 714 L 593 715 Q 599 717 597 712 Q 596 709 592 710 Z M 563 716 L 563 718 L 566 719 Q 568 715 563 716 Z M 598 716 L 601 720 L 604 719 L 604 716 L 598 716 Z M 581 718 L 579 721 L 582 722 L 581 718 Z M 567 720 L 567 722 Q 569 725 570 722 L 567 720 Z M 584 723 Q 582 729 590 727 L 591 725 Q 589 721 584 723 Z M 571 724 L 571 726 L 574 726 L 571 724 Z M 577 725 L 577 726 L 581 726 L 577 725 Z M 597 728 L 595 729 L 591 734 L 598 734 L 599 730 L 597 728 Z M 600 736 Q 598 741 604 739 Q 606 734 600 736 Z " /><path fill="rgb(83,85,86)" stroke="rgb(83,85,86)" stroke-width="1" opacity="0.9921568627450981" d="M 673.5 247 L 674 252.5 L 673 252.5 L 673.5 247 Z " /><path fill="rgb(83,85,86)" stroke="rgb(83,85,86)" stroke-width="1" opacity="0.9921568627450981" d="M 672.5 254 L 673 741.5 L 672 741.5 L 672 260.5 L 671 257.5 L 672.5 254 Z " /><path fill="rgb(83,85,86)" stroke="rgb(83,85,86)" stroke-width="1" opacity="0.9921568627450981" d="M 447.5 269 Q 450.5 270.5 447.5 272 Q 444.5 270.5 447.5 269 Z " /><path fill="rgb(83,85,86)" stroke="rgb(83,85,86)" stroke-width="1" opacity="0.9921568627450981" d="M 455.5 278 Q 458 279.2 457 283 Q 452.9 284.2 455.5 278 Z " /><path fill="rgb(83,85,86)" stroke="rgb(83,85,86)" stroke-width="1" opacity="0.9921568627450981" d="M 467.5 301 L 468 303.5 L 467 303.5 L 467.5 301 Z " /><path fill="rgb(83,85,86)" stroke="rgb(83,85,86)" stroke-width="1" opacity="0.9921568627450981" d="M 475.5 316 L 476 319.5 L 475 319.5 L 475.5 316 Z " /><path fill="rgb(83,85,86)" stroke="rgb(83,85,86)" stroke-width="1" opacity="0.9921568627450981" d="M 479 338 Q 481.7 336.9 481 339.5 L 479 340.5 L 479 338 Z " /><path fill="rgb(83,85,86)" stroke="rgb(83,85,86)" stroke-width="1" opacity="0.9921568627450981" d="M 487.5 342 L 488 346.5 L 486 345.5 L 487.5 342 Z " /><path fill="rgb(83,85,86)" stroke="rgb(83,85,86)" stroke-width="1" opacity="0.9921568627450981" d="M 483 349 Q 486.7 347.8 485 353 Q 481.3 354.2 483 349 Z " /><path fill="rgb(83,85,86)" stroke="rgb(83,85,86)" stroke-width="1" opacity="0.9921568627450981" d="M 492.5 358 L 496 358 L 496 364 L 492 361.5 L 491 359.5 L 492.5 358 Z " /><path fill="rgb(83,85,86)" stroke="rgb(83,85,86)" stroke-width="1" opacity="0.9921568627450981" d="M 487 366 L 489 366 L 489 371 L 487 371 L 487 366 Z " /><path fill="rgb(83,85,86)" stroke="rgb(83,85,86)" stroke-width="1" opacity="0.9921568627450981" d="M 499.5 368 Q 502.1 370.5 501 376 Q 498.3 377.1 499 374.5 L 498 369.5 L 499.5 368 Z " /><path fill="rgb(83,85,86)" stroke="rgb(83,85,86)" stroke-width="1" opacity="0.9921568627450981" d="M 491.5 374 L 493 376.5 L 491 375.5 L 491.5 374 Z " /><path fill="rgb(83,85,86)" stroke="rgb(83,85,86)" stroke-width="1" opacity="0.9921568627450981" d="M 503.5 377 Q 506.1 379.5 505 385 L 502 383.5 Q 500.8 378.3 503.5 377 Z " /><path fill="rgb(83,85,86)" stroke="rgb(83,85,86)" stroke-width="1" opacity="0.9921568627450981" d="M 487 385 Q 490.7 383.8 489 389 Q 485.3 390.2 487 385 Z " /><path fill="rgb(83,85,86)" stroke="rgb(83,85,86)" stroke-width="1" opacity="0.9921568627450981" d="M 496.5 385 L 498.5 388 Q 494.1 389.1 496.5 385 Z " /><path fill="rgb(83,85,86)" stroke="rgb(83,85,86)" stroke-width="1" opacity="0.9921568627450981" d="M 506 386 Q 508.7 384.9 508 387.5 L 509 388.5 L 509 396 L 513 398.5 L 513 401.5 L 517 407.5 L 517 410.5 L 521 415.5 L 521 421 L 518 419.5 L 514 409.5 L 511.5 407 Q 508.9 407.8 510 404.5 Q 507.8 403.3 509 398.5 L 506 395.5 L 506 386 Z " /><path fill="rgb(83,85,86)" stroke="rgb(83,85,86)" stroke-width="1" opacity="0.9921568627450981" d="M 507.5 410 L 509 410.5 L 509 416 Q 506.3 417.1 507 414.5 L 506 411.5 L 507.5 410 Z " /><path fill="rgb(83,85,86)" stroke="rgb(83,85,86)" stroke-width="1" opacity="0.9921568627450981" d="M 476.5 530 L 477 532.5 L 476 532.5 L 476.5 530 Z " /><path fill="rgb(83,85,86)" stroke="rgb(83,85,86)" stroke-width="1" opacity="0.9921568627450981" d="M 500.5 530 L 502 536.5 L 500.5 543 L 499 541.5 L 499 531.5 L 500.5 530 Z " /><path fill="rgb(83,85,86)" stroke="rgb(83,85,86)" stroke-width="1" opacity="0.9921568627450981" d="M 491.5 543 Q 494.3 544.4 493 549 L 491 549 L 491.5 543 Z " /><path fill="rgb(83,85,86)" stroke="rgb(83,85,86)" stroke-width="1" opacity="0.9921568627450981" d="M 503 547 Q 507.1 545.7 506 549 Q 501.9 550.3 503 547 Z " /><path fill="rgb(83,85,86)" stroke="rgb(83,85,86)" stroke-width="1" opacity="0.9921568627450981" d="M 484.5 550 L 486 553 Q 482.5 554.1 484.5 550 Z " /><path fill="rgb(83,85,86)" stroke="rgb(83,85,86)" stroke-width="1" opacity="0.9921568627450981" d="M 499 553 L 502 554.5 L 503 560.5 L 499 562 L 498 555.5 L 499 553 Z " /><path fill="rgb(83,85,86)" stroke="rgb(83,85,86)" stroke-width="1" opacity="0.9921568627450981" d="M 488.5 556 L 490 561.5 L 488.5 564 L 488.5 556 Z " /><path fill="rgb(83,85,86)" stroke="rgb(83,85,86)" stroke-width="1" opacity="0.9921568627450981" d="M 494.5 567 Q 496.8 566.3 496 568.5 L 492.5 573 L 492 568 L 494.5 567 Z " /><path fill="rgb(83,85,86)" stroke="rgb(83,85,86)" stroke-width="1" opacity="0.9921568627450981" d="M 496.5 578 L 498 581 Q 494.5 582.1 496.5 578 Z " /><path fill="rgb(83,85,86)" stroke="rgb(83,85,86)" stroke-width="1" opacity="0.9921568627450981" d="M 499 582 L 502 583.5 L 503 588.5 L 502 591 Q 499 592.3 500 588.5 L 499 582 Z " /><path fill="rgb(83,85,86)" stroke="rgb(83,85,86)" stroke-width="1" opacity="0.9921568627450981" d="M 431.5 642 L 432 644 L 430 643.5 L 431.5 642 Z " /><path fill="rgb(83,85,86)" stroke="rgb(83,85,86)" stroke-width="1" opacity="0.9921568627450981" d="M 624 674 L 628 676.5 L 624 678 L 624 674 Z " /><path fill="rgb(83,85,86)" stroke="rgb(83,85,86)" stroke-width="1" opacity="0.9921568627450981" d="M 621.5 744 Q 625.3 743.3 626 745.5 L 620.5 746 L 621.5 744 Z " /><path fill="rgb(83,85,86)" stroke="rgb(83,85,86)" stroke-width="1" opacity="0.9921568627450981" d="M 609.5 746 L 618.5 746 L 620 747.5 Q 621.3 751.3 617.5 750 Q 615.9 746.1 609.5 747 L 609.5 746 Z " /><path fill="rgb(83,85,86)" stroke="rgb(83,85,86)" stroke-width="1" opacity="0.9921568627450981" d="M 673.5 746 L 674 749.5 L 673 749.5 L 673.5 746 Z " /><path fill="rgb(83,85,86)" stroke="rgb(83,85,86)" stroke-width="1" opacity="0.9921568627450981" d="M 634.5 750 L 671 750.5 L 634.5 751 L 634.5 750 Z " /><path fill="rgb(106,107,108)" stroke="rgb(106,107,108)" stroke-width="1" opacity="0.9882352941176471" d="M 346.5 237 L 389.5 237 Q 391 239.5 396.5 238 L 404.5 241 L 409.5 241 Q 413 244.5 419.5 245 L 436 254 Q 434.9 256.7 437.5 256 L 441 258.5 L 442.5 261 L 453 270.5 L 469 294.5 L 469 297.5 L 473 303.5 L 473 306.5 L 489 338.5 L 489 341.5 L 497 356.5 L 498 362.5 L 513 392.5 L 513 395.5 L 526 421.5 L 537 446.5 L 538 451.5 L 549 472.5 L 550 477.5 L 569 519 Q 564.9 520.7 566 516.5 L 565 512.5 L 562 509.5 L 561 502 Q 557.2 503.5 558 500.5 Q 555.7 499.3 557 494.5 Q 552.1 492.9 553 485.5 L 549 481.5 L 549 476.5 L 546 473.5 L 543.5 467 Q 540.5 467.9 542 463.5 L 541 458.5 L 538.5 456 Q 535.5 456.5 537 449.5 L 534 446.5 L 531.5 440 Q 529.3 439.3 530 441.5 L 529 448 L 526 446.5 L 526 439.5 L 527.5 439 Q 530 438 529 433.5 L 528 431 L 525 431 L 525 423 L 522 423 L 520.5 427 Q 516.8 428.3 518 424.5 L 517 422 L 513 423.5 L 520 443.5 L 520 448 L 526 450.5 L 525 455 L 521 455 L 521 453.5 L 518.5 448 L 515 446.5 L 514 438.5 L 512.5 437 Q 508.3 438.3 510 433.5 L 509 428 Q 506.3 426.9 507 429.5 Q 504.8 430.8 506 435.5 L 510 440.5 L 511 450.5 L 514.5 455 L 517 456.5 L 517 580.5 L 515.5 582 L 508 583 Q 506.8 587.6 509.5 589 L 514 591.5 L 516.5 596 Q 521.8 597.3 523 594.5 L 524 588.5 L 521.5 585 L 520 584.5 L 524.5 584 L 531 588 Q 530.3 591.4 533 592.5 L 528.5 595 L 525 595 L 530 605.5 L 527.5 607 L 523.5 606 L 518 600.5 L 516.5 597 Q 513.3 600 507 599 L 504.5 594 L 504 600 L 508 602.5 Q 506.1 607.9 509.5 607 L 516 610.5 L 519.5 615 L 522 616.5 L 521 619 L 515 616.5 L 513.5 614 L 512 614 L 512 618 L 515 619.5 L 516 625.5 L 519 629.5 Q 518.5 635 521.5 637 Q 524.1 636.2 523 639.5 L 524 645 L 528.5 642 L 529 646.5 Q 526.5 648 528 653.5 Q 533 656.5 532 664 Q 534.7 662.9 534 665.5 L 536 673 L 539 674.5 L 540 683 Q 544.5 684.8 543 679.5 Q 544.5 676.5 546 679.5 L 544.5 683 Q 541.8 682.4 543 688.5 L 547 694.5 L 548 701 L 552 703.5 L 556 713 L 564 719.5 L 565.5 722 Q 567.8 721.3 567 723.5 L 568 726 L 572 727.5 Q 571.3 729.8 573.5 729 L 578 731 L 579.5 734 L 585.5 738 L 591 739 L 592.5 742 L 601 743 L 602.5 746 L 613.5 747 L 617 749.5 L 614.5 750 L 592.5 743 L 571 730 L 569.5 727 L 559 717.5 L 557.5 715 L 555 713.5 L 543 693.5 L 527 654.5 L 511 618.5 L 507 612.5 L 507 609.5 L 500 596.5 L 494 579.5 L 491 575.5 L 490 570.5 L 479 548.5 L 471 527.5 L 459 503.5 Q 458.2 495.8 454 491.5 L 454 488.5 L 443 466.5 Q 442.2 458.8 438 454.5 L 438 451.5 L 431 439.5 L 430 434.5 L 423 420.5 L 422 415.5 L 419 411.5 L 409 385.5 L 402 372.5 L 394 351.5 L 391 347.5 L 390 342.5 L 382 326.5 L 382 323.5 L 379 320.5 L 378 314.5 L 366 290.5 L 366 286.5 L 363 283.5 L 362 278.5 L 352 258.5 L 351 252.5 Q 346 247.5 345 238.5 L 346.5 237 Z M 448 269 Q 445 271 448 272 Q 451 271 448 269 Z M 456 278 Q 453 284 457 283 Q 458 279 456 278 Z M 468 301 L 467 304 L 468 304 L 468 301 Z M 476 316 L 475 320 L 476 320 L 476 316 Z M 479 338 L 479 341 L 481 340 Q 482 337 479 338 Z M 488 342 L 486 346 L 488 347 L 488 342 Z M 483 349 Q 481 354 485 353 Q 487 348 483 349 Z M 493 358 L 491 360 L 492 362 L 496 364 L 496 358 L 493 358 Z M 487 366 L 487 371 L 489 371 L 489 366 L 487 366 Z M 500 368 L 498 370 L 499 375 Q 498 377 501 376 Q 502 371 500 368 Z M 492 374 L 491 376 L 493 377 L 492 374 Z M 504 377 Q 501 378 502 384 L 505 385 Q 506 380 504 377 Z M 487 385 Q 485 390 489 389 Q 491 384 487 385 Z M 497 385 Q 494 389 499 388 L 497 385 Z M 506 386 L 506 396 L 509 399 Q 508 403 510 405 Q 509 408 512 407 L 514 410 L 518 420 L 521 421 L 521 416 L 517 411 L 517 408 L 513 402 L 513 399 L 509 396 L 509 389 L 508 388 Q 509 385 506 386 Z M 508 410 L 506 412 L 507 415 Q 506 417 509 416 L 509 411 L 508 410 Z M 477 530 L 476 533 L 477 533 L 477 530 Z M 501 530 L 499 532 L 499 542 L 501 543 L 502 537 L 501 530 Z M 492 543 L 491 549 L 493 549 Q 494 544 492 543 Z M 503 547 Q 502 550 506 549 Q 507 546 503 547 Z M 485 550 Q 482 554 486 553 L 485 550 Z M 499 553 L 498 556 L 499 562 L 503 561 L 502 555 L 499 553 Z M 489 556 L 489 564 L 490 562 L 489 556 Z M 495 567 L 492 568 L 493 573 L 496 569 Q 497 566 495 567 Z M 497 578 Q 494 582 498 581 L 497 578 Z M 499 582 L 500 589 Q 499 592 502 591 L 503 589 L 502 584 L 499 582 Z " /><path fill="rgb(106,107,108)" stroke="rgb(106,107,108)" stroke-width="1" opacity="0.9882352941176471" d="M 669.5 237 Q 673.3 236.3 674 238.5 L 675 243.5 L 674 243.5 L 673 239 L 662.5 242 L 658.5 242 L 653.5 245 L 635.5 247 L 629 246 L 628 251 L 635 253.5 L 633.5 257 L 628 258.5 L 633 262.5 L 633 581.5 L 630 584.5 L 632 587.5 L 632 604.5 L 626 617.5 L 628 621 Q 631.7 622.5 631 619.5 L 632 615 Q 635.3 613.7 634 618.5 L 632 622.5 L 632 635.5 L 629.5 639 L 624 634.5 L 623 629.5 L 617 621.5 L 615 614.5 Q 606 602.5 601 586.5 L 598 583.5 L 597 577.5 L 593 572.5 L 590 563.5 L 585 556.5 L 585 552 L 582 550.5 L 578 544.5 L 577 538.5 L 574 535.5 L 573 529.5 L 574 529.5 L 579 542.5 L 584.5 549 L 587 543.5 L 587 239.5 L 588.5 238 L 600.5 242 L 607.5 242 L 619.5 245 L 638.5 245 L 663.5 240 L 669.5 237 Z " /><path fill="rgb(106,107,108)" stroke="rgb(106,107,108)" stroke-width="1" opacity="0.9882352941176471" d="M 673.5 253 L 674 745.5 L 673 745.5 L 673.5 253 Z " /><path fill="rgb(106,107,108)" stroke="rgb(106,107,108)" stroke-width="1" opacity="0.9882352941176471" d="M 314.5 290 Q 317.5 289.2 316 293 Q 312.2 294.5 313 291.5 L 314.5 290 Z " /><path fill="rgb(106,107,108)" stroke="rgb(106,107,108)" stroke-width="1" opacity="0.9882352941176471" d="M 524.5 432 L 525 437.5 L 523 436.5 L 524.5 432 Z " /><path fill="rgb(106,107,108)" stroke="rgb(106,107,108)" stroke-width="1" opacity="0.9882352941176471" d="M 531.5 449 L 534 450.5 Q 534.8 454.3 532.5 455 L 530 453.5 Q 529.3 449.8 531.5 449 Z " /><path fill="rgb(106,107,108)" stroke="rgb(106,107,108)" stroke-width="1" opacity="0.9882352941176471" d="M 539.5 470 Q 542.9 469.1 541 474.5 L 538 472.5 L 539.5 470 Z " /><path fill="rgb(106,107,108)" stroke="rgb(106,107,108)" stroke-width="1" opacity="0.9882352941176471" d="M 539.5 493 L 542 494.5 L 541 498 L 538 496.5 L 539.5 493 Z " /><path fill="rgb(106,107,108)" stroke="rgb(106,107,108)" stroke-width="1" opacity="0.9882352941176471" d="M 548.5 497 Q 551.8 498.9 550 505 L 547 505 L 547 498.5 L 548.5 497 Z " /><path fill="rgb(106,107,108)" stroke="rgb(106,107,108)" stroke-width="1" opacity="0.9882352941176471" d="M 540.5 511 Q 543.3 512.3 541 513.5 Q 542.9 518.9 539.5 518 Q 537.3 517.3 538 513.5 L 540.5 511 Z " /><path fill="rgb(106,107,108)" stroke="rgb(106,107,108)" stroke-width="1" opacity="0.9882352941176471" d="M 569.5 520 L 573 527.5 L 571.5 528 Q 567.3 526.3 569.5 520 Z " /><path fill="rgb(106,107,108)" stroke="rgb(106,107,108)" stroke-width="1" opacity="0.9882352941176471" d="M 528.5 615 Q 535.8 612.8 534 618 L 530 619 L 530 632.5 L 528.5 633 L 524.5 634 Q 522 633 523 628.5 L 526 624.5 L 527 616.5 L 528.5 615 Z " /><path fill="rgb(106,107,108)" stroke="rgb(106,107,108)" stroke-width="1" opacity="0.9882352941176471" d="M 536.5 640 Q 539.1 642.4 538 648.5 L 536.5 651 Q 533.5 649.5 535 643.5 L 536.5 640 Z " /><path fill="rgb(106,107,108)" stroke="rgb(106,107,108)" stroke-width="1" opacity="0.9882352941176471" d="M 632.5 640 Q 635.5 643.1 634 650 L 632 649.5 L 632.5 640 Z " /><path fill="rgb(106,107,108)" stroke="rgb(106,107,108)" stroke-width="1" opacity="0.9882352941176471" d="M 564.5 710 L 565 713.5 L 564 713.5 L 564.5 710 Z " /><path fill="rgb(106,107,108)" stroke="rgb(106,107,108)" stroke-width="1" opacity="0.9882352941176471" d="M 576.5 725 L 581 725.5 L 576.5 726 L 576.5 725 Z " /><path fill="rgb(106,107,108)" stroke="rgb(106,107,108)" stroke-width="1" opacity="0.9882352941176471" d="M 619.5 750 L 634 750.5 L 619.5 751 L 619.5 750 Z " /><path fill="rgb(106,107,108)" stroke="rgb(106,107,108)" stroke-width="1" opacity="0.9882352941176471" d="M 671.5 750 L 674 750.5 L 671.5 751 L 671.5 750 Z " /><path fill="rgb(106,107,108)" stroke="rgb(106,107,108)" stroke-width="1" opacity="0.9882352941176471" d="M 666.5 751 L 670 751.5 L 666.5 752 L 666.5 751 Z " /><path fill="rgb(73,75,75)" stroke="rgb(73,75,75)" stroke-width="1" opacity="0.9921568627450981" d="M 668 129 L 670 129.5 L 668 130.5 L 668 129 Z " /><path fill="rgb(73,75,75)" stroke="rgb(73,75,75)" stroke-width="1" opacity="0.9921568627450981" d="M 676.5 142 L 678 146.5 L 676 147.5 L 677 145.5 L 676.5 142 Z " /><path fill="rgb(73,75,75)" stroke="rgb(73,75,75)" stroke-width="1" opacity="0.9921568627450981" d="M 661.5 242 L 666.5 245 L 669.5 244 L 673 245 Q 674 248.8 671.5 250 Q 667.8 248.8 669 252.5 L 667 258.5 L 667 617.5 L 666 618.5 L 666 650.5 L 667 651.5 L 667 670.5 Q 664.5 672 666 677.5 L 667 678.5 L 667 686.5 Q 664.1 690.1 665 697.5 L 667 701.5 L 667 724.5 L 663.5 730 L 655.5 730 L 654 731.5 Q 655 739 653 742 L 658 744 L 657.5 746 L 647.5 746 L 646.5 747 L 635.5 747 L 631.5 745 Q 629.3 748.5 624 748 Q 625.2 751.7 620 750 L 618.5 746 Q 613.5 747 612.5 744 L 605.5 744 L 605.5 745 L 607 745.5 L 604 746 Q 601.8 740 608.5 742 L 611 741 L 611 680.5 L 613 678.5 L 613 668.5 Q 616 665.3 615 659 Q 618.3 660.3 617 655.5 L 615 656.5 L 613.5 659 L 608 663.5 L 607 677.5 L 606 680 L 603 678.5 L 602 666.5 L 603 661.5 L 608 655.5 Q 607 649.5 611 648.5 Q 603 644.5 611 640.5 L 611 628.5 L 607.5 628 L 606 629.5 L 606 637.5 L 604.5 639 L 604 627.5 Q 607.4 624.9 606 617.5 Q 601.7 615.3 603 607.5 L 605 606.5 L 606 612.5 L 607.5 614 L 611 616.5 L 612 626.5 L 614.5 629 Q 617.8 627.9 617 630.5 Q 620.2 633.8 619 641.5 L 615 644 L 616.5 647 Q 617.8 644.7 622.5 646 L 626 648.5 Q 626.4 657.1 631.5 661 Q 633.8 660.3 633 662.5 L 636 671 L 641 674.5 L 644 685.5 L 651 692.5 Q 651.5 700 656.5 703 L 659 701.5 L 659 689.5 L 655 682.5 L 655 679.5 L 656 678.5 L 656 669.5 L 655 664.5 L 658 656.5 L 658 645.5 L 657 644.5 L 657 613.5 L 658 612.5 L 658 262.5 Q 661 260.5 660 254.5 L 664.5 250 L 672 246.5 L 668.5 245 L 663 246 Q 664.5 249.7 661.5 249 L 659.5 249 Q 649.6 250.4 645 246.5 L 646.5 246 Q 649.4 248.6 655.5 248 L 659 246.5 L 655 245.5 L 660 245 L 661.5 242 Z M 624 674 L 624 678 L 628 677 L 624 674 Z M 637 677 L 635 680 L 636 685 Q 635 688 638 687 Q 639 680 637 677 Z M 644 695 L 640 700 Q 641 706 638 709 L 640 710 L 647 711 L 649 707 L 646 697 Q 647 694 644 695 Z M 622 744 L 621 746 L 626 746 Q 625 743 622 744 Z " /><path fill="rgb(73,75,75)" stroke="rgb(73,75,75)" stroke-width="1" opacity="0.9921568627450981" d="M 670 252 Q 673.8 250.5 673 253.5 L 671 259.5 L 672 260.5 L 672 741.5 Q 674.8 743.3 673 749.5 L 672 749.5 L 670.5 746 L 667 745.5 L 670 742.5 L 670 260.5 L 669 255.5 L 670 252 Z " /><path fill="rgb(73,75,75)" stroke="rgb(73,75,75)" stroke-width="1" opacity="0.9921568627450981" d="M 571 531 Q 575 529.6 573 536.5 L 572 536.5 L 571 531 Z " /><path fill="rgb(73,75,75)" stroke="rgb(73,75,75)" stroke-width="1" opacity="0.9921568627450981" d="M 575.5 539 L 577 539.5 L 576 544.5 L 577 546.5 L 575 545.5 L 574 540.5 L 575.5 539 Z " /><path fill="rgb(73,75,75)" stroke="rgb(73,75,75)" stroke-width="1" opacity="0.9921568627450981" d="M 425.5 572 Q 428.8 570.9 428 573.5 L 426.5 573 L 425.5 572 Z " /><path fill="rgb(73,75,75)" stroke="rgb(73,75,75)" stroke-width="1" opacity="0.9921568627450981" d="M 599.5 594 L 601 594.5 L 601 601.5 L 599 600.5 L 597 596.5 L 599.5 594 Z " /><path fill="rgb(73,75,75)" stroke="rgb(73,75,75)" stroke-width="1" opacity="0.9921568627450981" d="M 544.5 687 L 545 689.5 L 544 689.5 L 544.5 687 Z " /><path fill="rgb(73,75,75)" stroke="rgb(73,75,75)" stroke-width="1" opacity="0.9921568627450981" d="M 548.5 695 L 550 698 Q 546.5 699.1 548.5 695 Z " /><path fill="rgb(73,75,75)" stroke="rgb(73,75,75)" stroke-width="1" opacity="0.9921568627450981" d="M 591.5 710 Q 596 709 597 711.5 Q 598.8 717.2 592.5 715 L 589 714 L 591.5 710 Z " /><path fill="rgb(73,75,75)" stroke="rgb(73,75,75)" stroke-width="1" opacity="0.9921568627450981" d="M 563 716 Q 567.5 714.5 566 719 L 563 717.5 L 563 716 Z " /><path fill="rgb(73,75,75)" stroke="rgb(73,75,75)" stroke-width="1" opacity="0.9921568627450981" d="M 598 716 L 604 716 L 604 718.5 L 600.5 720 L 598 716 Z " /><path fill="rgb(73,75,75)" stroke="rgb(73,75,75)" stroke-width="1" opacity="0.9921568627450981" d="M 580.5 718 L 582 722 L 579 720.5 L 580.5 718 Z " /><path fill="rgb(73,75,75)" stroke="rgb(73,75,75)" stroke-width="1" opacity="0.9921568627450981" d="M 567 720 L 570 721.5 Q 568.5 724.5 567 721.5 L 567 720 Z " /><path fill="rgb(73,75,75)" stroke="rgb(73,75,75)" stroke-width="1" opacity="0.9921568627450981" d="M 584 723 Q 589.4 721.5 591 724.5 L 589.5 727 Q 581.7 729.4 584 723 Z M 589 724 L 586 726 L 589 726 L 589 724 Z " /><path fill="rgb(73,75,75)" stroke="rgb(73,75,75)" stroke-width="1" opacity="0.9921568627450981" d="M 571 724 L 574 725.5 L 571 726 L 571 724 Z " /><path fill="rgb(73,75,75)" stroke="rgb(73,75,75)" stroke-width="1" opacity="0.9921568627450981" d="M 596.5 728 L 599 729.5 L 598 734 L 591 733.5 L 594.5 729 L 596.5 728 Z " /><path fill="rgb(73,75,75)" stroke="rgb(73,75,75)" stroke-width="1" opacity="0.9921568627450981" d="M 578.5 729 Q 582.9 727.5 582 730.5 L 584.5 734 L 580 733.5 L 581 731 L 578.5 729 Z " /><path fill="rgb(73,75,75)" stroke="rgb(73,75,75)" stroke-width="1" opacity="0.9921568627450981" d="M 588.5 735 L 590 738 Q 586.2 739.5 587 736.5 L 588.5 735 Z " /><path fill="rgb(73,75,75)" stroke="rgb(73,75,75)" stroke-width="1" opacity="0.9921568627450981" d="M 600 736 Q 605.6 734.1 604 739 Q 598.4 740.9 600 736 Z " /><path fill="rgb(73,75,75)" stroke="rgb(73,75,75)" stroke-width="1" opacity="0.9921568627450981" d="M 594 740 L 600 740.5 L 597.5 742 L 595.5 742 Q 592.9 742.7 594 740 Z " /><path fill="rgb(154,176,189)" stroke="rgb(154,176,189)" stroke-width="1" opacity="0.4549019607843137" d="M 623.5 105 L 647.5 107 Q 663.9 112.6 674 124.5 L 680 134.5 L 684 145.5 L 685 158.5 L 684 159.5 L 684 172.5 L 680 182.5 Q 674.8 194.8 664.5 202 Q 655.8 208.8 643.5 212 L 616.5 212 L 602.5 208 Q 591.2 201.3 583 191.5 L 577 178.5 L 574 164.5 L 574 155.5 L 577 145.5 L 577 140.5 L 581 130.5 L 591.5 118 L 603.5 110 L 611.5 107 L 622.5 106 L 623.5 105 Z M 624 108 L 605 113 L 598 118 L 584 133 L 579 146 Q 581 152 578 154 L 579 175 L 583 186 L 587 192 Q 595 201 606 207 L 610 207 L 622 211 Q 635 213 644 210 L 654 207 L 665 199 Q 667 200 666 198 L 669 196 L 678 183 L 682 171 L 682 149 L 675 132 L 670 126 Q 671 123 669 124 L 667 122 Q 658 113 644 109 L 624 108 Z " /><path fill="rgb(154,176,189)" stroke="rgb(154,176,189)" stroke-width="1" opacity="0.4549019607843137" d="M 344.5 234 Q 349.2 232.8 350.5 235 L 373.5 235 L 378.5 234 L 379.5 235 L 397.5 235 L 405.5 238 L 410.5 238 Q 427.9 244.3 441 254 L 444.5 259 L 448 261.5 L 450 264.5 Q 462.1 274.9 470 289.5 L 471 294.5 Q 478.6 306.4 483 321.5 L 487 327.5 L 491 339.5 L 499 354.5 L 500 360.5 L 523 408.5 L 539 445.5 L 540 450.5 L 546 460.5 L 554 481.5 L 563 498.5 L 572 522.5 L 581.5 542 Q 585.5 540.5 584 533.5 L 582 524.5 L 582 489.5 L 581 488.5 L 581 415.5 L 582 414.5 L 582 332.5 L 581 331.5 L 581 236.5 L 582.5 235 L 591.5 235 L 607.5 240 L 625.5 242 L 626.5 243 L 635.5 243 L 651.5 240 L 667.5 235 L 674.5 235 Q 678.3 237.3 677 244.5 L 676 245.5 L 676 750.5 L 673.5 753 L 621.5 753 L 605.5 750 Q 577.9 742.1 561 723.5 L 549 709.5 L 537 686.5 L 525 656.5 Q 515.2 640.3 509 620.5 L 502 608.5 L 492 582.5 L 489 578.5 L 489 575.5 L 479 556.5 L 469 530.5 L 461 516.5 L 456 501.5 L 449 488.5 L 433 448.5 L 420 422.5 L 420 419.5 Q 408.2 398.3 400 373.5 L 375 320.5 L 368 301.5 L 351 266.5 L 351 263.5 L 345 253.5 L 340 238.5 L 341 235 L 344.5 234 Z M 347 237 L 345 239 L 346 245 Q 350 249 351 257 L 354 261 L 359 275 L 362 279 Q 362 285 366 288 L 366 291 L 369 295 L 378 316 L 379 321 L 382 325 L 391 348 L 401 368 L 402 373 L 409 386 L 419 412 L 422 416 L 423 421 L 430 435 L 431 440 L 438 452 L 438 455 Q 442 459 443 467 L 454 489 L 454 492 Q 458 496 459 504 L 471 528 L 479 549 L 490 571 L 491 576 L 494 580 L 500 597 L 507 610 L 507 613 L 511 619 L 527 655 L 543 694 L 555 714 L 558 715 L 559 718 L 570 727 L 571 730 L 593 743 L 615 750 L 620 751 L 666 751 L 667 752 L 674 751 L 674 245 L 675 244 L 673 237 L 656 242 L 639 245 L 620 245 L 608 242 L 602 242 L 588 238 L 585 242 L 585 252 L 586 253 Q 587 257 585 259 L 586 261 L 586 536 L 587 537 Q 588 545 585 549 L 579 543 Q 578 535 574 532 L 562 502 L 550 478 L 549 473 L 538 452 Q 527 422 513 396 L 513 393 L 498 363 L 497 357 L 489 342 L 489 339 L 478 318 Q 477 310 473 307 L 473 304 L 469 298 L 469 295 L 453 271 L 443 261 L 441 259 L 438 256 Q 435 257 436 254 L 420 245 Q 413 244 410 241 L 405 241 L 397 238 Q 391 240 390 237 L 347 237 Z " /><path fill="rgb(154,176,189)" stroke="rgb(154,176,189)" stroke-width="1" opacity="0.4549019607843137" d="M 313.5 287 Q 317.9 285.5 317 288.5 L 320 293.5 L 321 299.5 L 329 320.5 L 336 355.5 L 337 374.5 L 338 375.5 L 338 425.5 L 337 426.5 L 336 443.5 L 333 454.5 L 333 460.5 L 326 487.5 L 317 512.5 L 310 526.5 L 301 550.5 L 297 556.5 L 297 561 Q 300 563 307.5 562 L 309.5 561 L 310.5 562 L 336.5 562 L 340.5 561 Q 341.8 563.3 346.5 562 L 347.5 561 L 408.5 561 Q 423.1 563.4 433.5 570 L 443 579.5 L 451 592.5 Q 450.3 598.2 453 600.5 L 453 617.5 L 450 628.5 L 441 643 L 438 644.5 Q 438.8 646.8 436.5 646 L 424.5 653 L 412.5 656 L 342.5 656 Q 335.5 660 324.5 660 L 302.5 667 L 268.5 685 Q 249.7 696.7 236 713.5 L 218 738.5 L 211 753 L 203.5 755 L 198.5 755 L 197.5 754 L 119.5 754 L 115.5 753 L 110.5 754 L 105 751.5 L 104 748.5 L 131 686.5 L 135 680.5 L 144 657.5 L 147 653.5 L 151 641.5 L 171 600.5 L 171 597.5 L 174 593.5 L 184 568.5 L 186 566.5 L 188 558.5 L 209 516.5 L 212 506.5 L 231 465.5 L 233 458.5 L 239 448.5 L 243 439.5 L 243 436.5 Q 259.3 405.8 272 371.5 L 283 350.5 L 285 342.5 L 295 323.5 L 304 299.5 L 311 288 L 313.5 287 Z M 315 290 L 310 295 L 285 354 L 281 360 L 281 363 L 274 376 L 273 381 L 270 385 L 265 399 L 261 405 L 260 410 L 246 439 L 245 444 L 242 448 L 241 453 L 226 483 L 216 509 L 210 520 L 209 525 L 193 557 L 188 571 L 173 602 L 172 607 L 169 611 L 168 616 L 162 626 L 161 631 L 148 660 L 145 664 L 144 669 L 141 673 L 137 682 L 137 685 L 133 691 L 128 705 L 120 720 L 108 749 L 110 751 L 208 751 L 210 750 Q 222 725 240 706 Q 242 707 241 705 L 256 691 L 273 679 L 279 677 L 282 674 L 296 667 Q 304 666 309 662 L 342 654 L 414 654 L 434 646 Q 442 639 448 629 L 452 607 L 449 593 L 444 585 Q 445 582 443 583 L 441 581 Q 432 568 415 565 L 297 565 L 294 563 L 294 558 L 300 548 L 309 524 L 312 520 L 324 488 L 332 458 L 332 449 L 336 432 L 336 369 Q 334 367 335 362 L 333 357 L 332 343 Q 328 336 328 325 L 316 292 Q 317 289 315 290 Z " /><path fill="rgb(59,129,177)" stroke="rgb(59,129,177)" stroke-width="1" opacity="0.9921568627450981" d="M 623.5 108 L 643.5 109 Q 657.7 112.8 667 121.5 L 668.5 124 Q 670.8 123.3 670 125.5 Q 676.3 131.2 679 140.5 L 678 140.5 L 674 131.5 L 668.5 125 L 666 123.5 L 664.5 121 Q 659.8 121.8 659 118.5 Q 659.8 115.9 656.5 117 L 653 116 L 651.5 113 L 645.5 113 Q 644.3 116 640 115 L 638.5 112 L 636.5 111 L 633 113.5 L 640 116 L 640 119 L 647.5 119 L 650 118 Q 651.3 122.6 648.5 124 L 644 125 L 646 129.5 L 642 132 L 640 136.5 L 643 139.5 L 648 151.5 L 643 159 Q 639.7 157.7 641 162.5 L 646 176.5 L 643 183.5 L 642 192.5 Q 644.3 193.8 641.5 195 L 640 195 L 640 200 L 648.5 200 L 649 202 L 637 204 Q 638.8 208.9 632.5 207 L 624 209.5 L 627 210.5 L 621.5 211 L 609.5 207 L 605.5 207 Q 594.8 200.8 587 191.5 L 583 185.5 L 579 174.5 L 578 153.5 Q 580.8 151.8 579 145.5 L 584 132.5 L 597.5 118 L 604.5 113 L 623.5 108 Z M 633 109 Q 631 112 634 111 L 633 109 Z M 614 113 L 614 115 L 622 115 L 623 114 L 614 113 Z M 636 121 L 637 123 L 640 122 L 636 121 Z M 616 205 L 616 207 L 621 207 L 616 205 Z " /><path fill="rgb(59,129,177)" stroke="rgb(59,129,177)" stroke-width="1" opacity="0.9921568627450981" d="M 679.5 142 L 682 150.5 L 681 150.5 Q 678 147.1 679.5 142 Z " /><path fill="rgb(59,129,177)" stroke="rgb(59,129,177)" stroke-width="1" opacity="0.9921568627450981" d="M 662.5 199 L 664 199.5 L 653.5 207 L 656.5 203 L 662.5 199 Z " /><path fill="rgb(59,129,177)" stroke="rgb(59,129,177)" stroke-width="1" opacity="0.9921568627450981" d="M 643.5 208 L 647 208.5 L 641.5 210 L 641.5 209 L 643.5 208 Z " /><path fill="rgb(59,129,177)" stroke="rgb(59,129,177)" stroke-width="1" opacity="0.9921568627450981" d="M 587.5 238 L 587 239.5 L 586.5 536 L 586 260.5 L 585 258.5 Q 587.3 257.3 586 252.5 L 585 251.5 L 585 241.5 L 587.5 238 Z " /><path fill="rgb(59,129,177)" stroke="rgb(59,129,177)" stroke-width="1" opacity="0.9921568627450981" d="M 312.5 292 L 313 298.5 L 308.5 307 L 307 306.5 L 306 313.5 L 303 317.5 L 302 322.5 L 307 325.5 L 309.5 329 L 315 328 Q 316.3 325 312.5 326 L 308 325 L 310 319.5 L 310 312.5 L 309 310.5 L 314.5 307 L 319 318.5 Q 315.8 320 317 325 Q 321.7 326 323 322.5 L 324.5 316 L 328 326.5 L 327 326.5 L 326.5 325 L 322 334.5 L 322 338 Q 318.3 336.5 319 339.5 L 318 340.5 L 318 351.5 L 319 355 L 316 353.5 L 315.5 351 L 312 368.5 L 313 369.5 L 313 377.5 L 316 380.5 L 316 421.5 L 317.5 423 Q 320.8 421.9 320 424.5 L 322.5 428 L 326 428 L 326 434.5 L 324 442.5 L 326 453 L 321 453 L 321 448.5 Q 323.5 447 322 441.5 L 320 436 Q 317.3 434.9 318 437.5 L 317 438.5 L 317 447.5 L 319.5 454 L 321 454.5 L 321 462.5 L 324 469.5 L 324 475.5 L 325.5 477 L 327 477.5 L 324.5 484 Q 325.4 478.6 322.5 477 Q 319.1 477.9 321 472.5 L 320 470 Q 316.5 468.9 318 476.5 L 321 482.5 L 318.5 489 L 316 490.5 L 316 499.5 L 314.5 501 Q 311.2 499.9 312 502.5 Q 309.7 513.7 303 520.5 Q 305.5 522 304 527.5 Q 298.7 529.7 300 538.5 L 303 540.5 Q 299.7 542.7 299.5 548 L 298.5 542 L 296 549 Q 292.2 548.3 291 551.5 L 287 560.5 L 289 563.5 L 290.5 571 Q 294.7 569.3 292 567.5 L 292 557.5 L 293.5 556 L 295 556.5 Q 292.8 557.7 294 562.5 L 296.5 565 L 414.5 565 L 419 566.5 L 414.5 567 L 413.5 566 L 390.5 566 L 389.5 567 L 301.5 567 L 299 568 Q 298.3 571.8 301.5 573 L 307.5 571 L 310 572 L 309 577 Q 314.3 578 316.5 575 L 318.5 577 L 335.5 578 L 339 580.5 L 332 584 L 330.5 588 L 324 591 Q 325.1 593.7 322.5 593 Q 318.8 595 320.5 597 L 314 599.5 Q 310.2 602.7 312 611.5 L 315.5 616 L 316.5 615 L 324.5 615 L 324.5 617 L 330 616 L 331 613.5 L 329 612.5 L 332.5 610 L 336.5 612 L 336.5 610 L 342 610 L 342 612.5 L 343 617.5 Q 343.8 620.1 340.5 619 L 338.5 619 L 328.5 620 L 326.5 619 L 320 622.5 Q 320.8 624.8 318.5 624 L 317 625.5 L 317.5 628 L 320 629.5 L 323.5 635 L 326.5 637 L 331.5 637 L 344 640 L 342 649 L 334.5 649 L 333.5 648 L 331.5 648 L 327.5 647 L 320 648.5 Q 322.3 650.9 327 650 L 325.5 653 L 314.5 653 Q 313 649.5 306.5 651 L 304 652 Q 303.3 655.4 306 656.5 L 300 660 Q 298.3 664.1 302.5 663 L 307.5 662 L 307.5 663 L 295.5 667 L 281.5 674 L 278.5 677 L 272.5 679 L 255.5 691 L 241 704.5 Q 241.8 706.8 239.5 706 L 219.5 733 L 218 732.5 L 219 734.5 L 216 737.5 L 215 741.5 L 209.5 750 L 207.5 751 L 109.5 751 L 108 748.5 L 120 719.5 L 128 704.5 L 133 690.5 L 137 684.5 L 137 681.5 L 141 672.5 L 144 668.5 L 145 663.5 L 148 659.5 L 161 630.5 L 162 625.5 L 168 615.5 L 169 610.5 L 172 606.5 L 173 601.5 L 188 570.5 L 193 556.5 L 209 524.5 L 210 519.5 L 216 508.5 L 226 482.5 L 241 452.5 L 242 447.5 L 245 443.5 L 246 438.5 L 260 409.5 L 261 404.5 L 265 398.5 L 270 384.5 L 273 380.5 L 274 375.5 L 281 362.5 L 281 359.5 L 285 353.5 L 310 294.5 L 312.5 292 Z M 298 325 L 298 331 L 300 331 L 301 327 L 298 325 Z M 296 332 L 293 339 L 294 341 Q 293 344 297 342 L 298 338 L 297 334 Q 298 331 296 332 Z M 304 333 L 302 335 L 305 336 L 304 333 Z M 307 336 L 306 345 L 309 344 L 308 338 L 307 336 Z M 292 343 L 290 351 L 292 350 L 292 343 Z M 286 351 L 286 358 L 288 359 L 290 358 L 291 356 L 290 353 L 290 351 L 286 351 Z M 280 369 L 278 371 L 278 376 L 281 376 Q 283 375 282 371 L 280 369 Z M 276 377 L 274 379 Q 272 385 276 384 L 277 382 Q 278 378 276 377 Z M 272 387 Q 269 389 270 394 L 273 393 L 272 387 Z M 266 398 L 267 405 L 269 400 L 266 398 Z M 264 405 L 262 407 L 262 413 L 265 412 Q 266 404 264 405 Z M 255 426 L 253 432 Q 254 435 250 433 L 250 438 L 253 436 Q 252 433 255 434 L 256 432 Q 257 427 255 426 Z M 243 452 L 242 457 L 243 457 L 243 452 Z M 235 467 L 234 474 L 236 473 Q 237 468 235 467 Z M 231 478 L 230 481 L 231 481 L 231 478 Z M 315 486 Q 312 490 316 489 L 315 486 Z M 226 487 L 227 490 L 228 488 L 226 487 Z M 292 489 L 294 495 L 296 491 L 292 489 Z M 223 497 L 222 501 L 224 500 L 223 497 Z M 219 506 L 218 511 L 219 511 L 219 506 Z M 215 514 L 215 520 L 216 518 L 215 514 Z M 211 526 L 210 530 L 211 530 L 211 526 Z M 296 526 L 294 528 Q 292 534 296 533 L 296 526 Z M 287 579 L 287 582 Q 290 581 287 579 Z M 337 613 L 337 614 L 341 614 L 337 613 Z M 337 616 L 337 617 L 340 617 L 337 616 Z M 299 663 Q 297 666 300 665 L 299 663 Z M 287 667 L 285 670 L 292 669 Q 291 666 287 667 Z M 281 671 Q 280 674 284 673 Q 285 670 281 671 Z M 270 676 L 270 678 L 272 677 L 270 676 Z M 267 679 Q 264 681 267 682 L 269 681 Q 270 678 267 679 Z M 255 688 L 253 690 L 256 690 Q 257 687 255 688 Z M 251 691 L 248 694 L 251 694 Q 254 693 251 691 Z M 247 695 L 245 697 Q 244 699 247 698 Q 250 697 247 695 Z M 239 700 Q 236 701 237 706 L 240 705 Q 241 701 239 700 Z M 230 709 L 229 712 L 231 715 L 233 710 L 235 710 L 230 709 Z " /><path fill="rgb(59,129,177)" stroke="rgb(59,129,177)" stroke-width="1" opacity="0.9921568627450981" d="M 316.5 292 L 320 302.5 L 317.5 301 L 316 300.5 L 316.5 292 Z " /><path fill="rgb(59,129,177)" stroke="rgb(59,129,177)" stroke-width="1" opacity="0.9921568627450981" d="M 320.5 304 L 324 314.5 L 323 314.5 L 320 306.5 L 320.5 304 Z " /><path fill="rgb(59,129,177)" stroke="rgb(59,129,177)" stroke-width="1" opacity="0.9921568627450981" d="M 328.5 330 L 332 346.5 L 331 346.5 L 328 335.5 L 328.5 330 Z " /><path fill="rgb(59,129,177)" stroke="rgb(59,129,177)" stroke-width="1" opacity="0.9921568627450981" d="M 332.5 350 L 336 371.5 L 335 371.5 Q 336 367.8 333 369 L 333 365.5 L 332 364.5 L 332.5 350 Z " /><path fill="rgb(59,129,177)" stroke="rgb(59,129,177)" stroke-width="1" opacity="0.9921568627450981" d="M 326.5 365 L 331 382.5 L 331 390.5 Q 326.9 392.4 328 399.5 Q 330.8 401.3 329 407.5 Q 332.5 411 333 417.5 L 330.5 424 Q 329.3 420.8 323.5 422 L 321 419.5 L 322 414.5 L 321 413.5 L 321 404.5 L 322 403.5 L 322 391 L 325 389.5 L 324 370.5 L 326.5 365 Z " /><path fill="rgb(59,129,177)" stroke="rgb(59,129,177)" stroke-width="1" opacity="0.9921568627450981" d="M 333.5 439 L 334 441.5 L 333 441.5 L 333.5 439 Z " /><path fill="rgb(59,129,177)" stroke="rgb(59,129,177)" stroke-width="1" opacity="0.9921568627450981" d="M 328.5 466 L 329 468.5 L 328 468.5 L 328.5 466 Z " /><path fill="rgb(59,129,177)" stroke="rgb(59,129,177)" stroke-width="1" opacity="0.9921568627450981" d="M 317 502 L 319 502.5 L 316.5 507 L 316 505.5 L 317 502 Z " /><path fill="rgb(59,129,177)" stroke="rgb(59,129,177)" stroke-width="1" opacity="0.9921568627450981" d="M 313 512 L 315 512.5 L 312.5 517 L 312 514.5 L 313 512 Z " /><path fill="rgb(59,129,177)" stroke="rgb(59,129,177)" stroke-width="1" opacity="0.9921568627450981" d="M 297.5 549 L 299 549.5 L 296.5 553 L 296 550.5 L 297.5 549 Z " /><path fill="rgb(59,129,177)" stroke="rgb(59,129,177)" stroke-width="1" opacity="0.9921568627450981" d="M 424.5 568 L 427 569.5 L 425.5 570 L 424.5 568 Z " /><path fill="rgb(59,129,177)" stroke="rgb(59,129,177)" stroke-width="1" opacity="0.9921568627450981" d="M 432.5 572 L 438.5 579 L 434 576 L 432.5 572 Z " /><path fill="rgb(59,129,177)" stroke="rgb(59,129,177)" stroke-width="1" opacity="0.9921568627450981" d="M 337.5 654 L 341 654.5 L 337.5 655 L 337.5 654 Z " /><path fill="rgb(59,129,177)" stroke="rgb(59,129,177)" stroke-width="1" opacity="0.9921568627450981" d="M 319.5 658 L 322 658.5 L 319.5 659 L 319.5 658 Z " /><path fill="rgb(59,129,177)" stroke="rgb(59,129,177)" stroke-width="1" opacity="0.9921568627450981" d="M 314.5 659 L 318 659.5 L 313.5 661 L 314.5 659 Z " /><path fill="rgb(68,70,71)" stroke="rgb(68,70,71)" stroke-width="1" opacity="0.9921568627450981" d="M 668.5 241 Q 672.3 240.3 673 242.5 Q 674.3 246.3 670.5 245 L 667.5 244 L 665.5 245 L 662 242.5 L 668.5 241 Z " /><path fill="rgb(68,70,71)" stroke="rgb(68,70,71)" stroke-width="1" opacity="0.9921568627450981" d="M 647.5 246 L 659 246.5 L 651.5 248 L 647.5 247 L 647.5 246 Z " /><path fill="rgb(68,70,71)" stroke="rgb(68,70,71)" stroke-width="1" opacity="0.9921568627450981" d="M 672.5 249 L 673 252 Q 668.9 250.3 670 254.5 L 669 259.5 L 670 260.5 L 670 742.5 L 667.5 746 Q 671.3 745.3 672 747.5 L 671.5 750 L 624 750 Q 622.8 747 626.5 748 L 633.5 745 L 635.5 747 L 646.5 747 L 647.5 746 L 658 746 Q 659.1 743.3 656.5 744 L 653 742 Q 655 739 654 731.5 L 655.5 730 Q 664 732 666 727.5 L 667 724.5 L 667 701.5 Q 664 698.5 665 691.5 Q 668.1 687.1 667 678.5 Q 664.5 677 666 671.5 L 667 670.5 L 667 651.5 L 666 650.5 L 666 618.5 L 667 617.5 L 667 258.5 L 669 250 L 672.5 249 Z " /><path fill="rgb(68,70,71)" stroke="rgb(68,70,71)" stroke-width="1" opacity="0.9921568627450981" d="M 576.5 540 L 577 544.5 L 576 544.5 L 576.5 540 Z " /><path fill="rgb(68,70,71)" stroke="rgb(68,70,71)" stroke-width="1" opacity="0.9921568627450981" d="M 447.5 595 L 448 598.5 L 447 598.5 L 446 596.5 L 447.5 595 Z " /><path fill="rgb(68,70,71)" stroke="rgb(68,70,71)" stroke-width="1" opacity="0.9921568627450981" d="M 447.5 618 L 448 624.5 L 447 624.5 L 447.5 618 Z " /><path fill="rgb(68,70,71)" stroke="rgb(68,70,71)" stroke-width="1" opacity="0.9921568627450981" d="M 636.5 677 Q 639.5 680.1 638 687 Q 635 688.3 636 684.5 L 635 679.5 L 636.5 677 Z " /><path fill="rgb(68,70,71)" stroke="rgb(68,70,71)" stroke-width="1" opacity="0.9921568627450981" d="M 643.5 695 Q 646.8 693.9 646 696.5 L 649 706.5 L 646.5 711 L 639.5 710 L 638 708.5 Q 640.6 705.6 640 699.5 L 643.5 695 Z " /><path fill="rgb(68,70,71)" stroke="rgb(68,70,71)" stroke-width="1" opacity="0.9921568627450981" d="M 588.5 724 L 589 726 L 586 725.5 L 588.5 724 Z " /><path fill="rgb(68,70,71)" stroke="rgb(68,70,71)" stroke-width="1" opacity="0.9921568627450981" d="M 605.5 744 Q 612.3 742.2 614 745.5 L 607.5 746 L 605.5 744 Z " /></svg>